<svg width="82" height="82" viewBox="0 0 82 82" fill="none" xmlns="http://www.w3.org/2000/svg">
<path d="M26.08 61.96C26.8084 63.3121 27.8872 64.4434 29.2033 65.2351C30.5193 66.0269 32.0242 66.4499 33.56 66.46C34.938 66.4615 36.2956 66.1272 37.5153 65.486C38.735 64.8448 39.78 63.916 40.56 62.78C41.34 63.916 42.3851 64.8448 43.6047 65.486C44.8244 66.1272 46.182 66.4615 47.56 66.46C49.0975 66.4517 50.6045 66.0295 51.9224 65.2377C53.2404 64.4458 54.3208 63.3136 55.05 61.96C57.7228 61.8247 60.2426 60.672 62.0927 58.7382C63.9428 56.8045 64.983 54.2362 65 51.56C64.9979 51.1521 64.9712 50.7447 64.92 50.34C66.4758 48.5169 67.3576 46.2144 67.4177 43.8185C67.4778 41.4226 66.7124 39.0788 65.25 37.18C66.4545 35.6331 67.1995 33.7785 67.3999 31.8283C67.6004 29.878 67.2482 27.9107 66.3835 26.1511C65.5188 24.3916 64.1766 22.9107 62.5102 21.8778C60.8439 20.8449 58.9205 20.3016 56.96 20.31C56.495 20.3131 56.0307 20.3465 55.57 20.41C55.0642 18.9225 54.1546 17.6049 52.9429 16.6047C51.7312 15.6045 50.2652 14.961 48.7088 14.7462C47.1523 14.5314 45.5668 14.7538 44.1295 15.3884C42.6922 16.0231 41.4598 17.045 40.57 18.34C39.6802 17.045 38.4478 16.0231 37.0105 15.3884C35.5732 14.7538 33.9877 14.5314 32.4312 14.7462C30.8748 14.961 29.4088 15.6045 28.1971 16.6047C26.9854 17.6049 26.0758 18.9225 25.57 20.41C25.1093 20.3465 24.645 20.3131 24.18 20.31C22.2281 20.3089 20.315 20.8545 18.6573 21.8849C16.9996 22.9153 15.6636 24.3894 14.8007 26.1402C13.9378 27.891 13.5825 29.8484 13.775 31.7907C13.9675 33.7331 14.7002 35.5827 15.89 37.13C14.4276 39.0288 13.6622 41.3726 13.7223 43.7685C13.7824 46.1644 14.6642 48.4669 16.22 50.29C16.1601 50.7108 16.1267 51.135 16.12 51.56C16.1371 54.2378 17.1787 56.8075 19.0309 58.7415C20.8831 60.6756 23.4054 61.8272 26.08 61.96ZM47.56 17.66C49.0152 17.6626 50.4101 18.2419 51.4391 19.2709C52.4681 20.2999 53.0474 21.6948 53.05 23.15V23.44C53.0487 23.6334 53.009 23.8247 52.9332 24.0026C52.8573 24.1806 52.7469 24.3417 52.6083 24.4766C52.4696 24.6115 52.3056 24.7176 52.1256 24.7885C51.9457 24.8595 51.7534 24.894 51.56 24.89C51.1622 24.89 50.7806 25.048 50.4993 25.3293C50.218 25.6106 50.06 25.9922 50.06 26.39C50.06 26.7878 50.218 27.1694 50.4993 27.4507C50.7806 27.732 51.1622 27.89 51.56 27.89C52.7334 27.8769 53.8545 27.4029 54.6815 26.5703C55.5084 25.7378 55.9748 24.6134 55.98 23.44V23.38C56.2848 23.3365 56.5921 23.3131 56.9 23.31C58.8785 23.31 60.776 24.096 62.175 25.495C63.574 26.894 64.36 28.7915 64.36 30.77C64.36 32.7485 63.574 34.646 62.175 36.045C60.776 37.444 58.8785 38.23 56.9 38.23H56.69C56.5851 36.997 56.2022 35.8038 55.57 34.74C55.4745 34.5604 55.3434 34.4021 55.1848 34.2747C55.0262 34.1473 54.8433 34.0535 54.6473 33.999C54.4513 33.9446 54.2463 33.9305 54.0447 33.9578C53.8431 33.985 53.6491 34.053 53.4746 34.1576C53.3001 34.2621 53.1487 34.4011 53.0296 34.566C52.9105 34.731 52.8261 34.9184 52.7818 35.1169C52.7374 35.3155 52.7338 35.5209 52.7713 35.7209C52.8089 35.9208 52.8867 36.1111 53 36.28C53.4274 37.015 53.6742 37.841 53.72 38.69C53.6076 38.8452 53.5292 39.0224 53.49 39.21C53.4212 39.5226 53.4563 39.8492 53.59 40.14C53.3372 41.2259 52.7453 42.203 51.9 42.93C51.7928 42.9729 51.6919 43.0301 51.6 43.1C51.5046 43.1703 51.4203 43.2546 51.35 43.35C50.6156 43.8469 49.7642 44.1434 48.88 44.21C48.4822 44.2246 48.1064 44.3966 47.8354 44.6882C47.5645 44.9799 47.4204 45.3672 47.435 45.765C47.4496 46.1628 47.6216 46.5386 47.9132 46.8096C48.2048 47.0805 48.5922 47.2246 48.99 47.21H49.1C50.0958 47.1316 51.0687 46.8706 51.97 46.44C52.1704 46.9635 52.2721 47.5195 52.27 48.08C52.272 48.9672 52.0271 49.8375 51.5626 50.5933C51.0981 51.3492 50.4324 51.9609 49.64 52.36C49.338 52.5119 49.0961 52.7615 48.9537 53.0681C48.8112 53.3747 48.7766 53.7205 48.8553 54.0493C48.934 54.3781 49.1215 54.6707 49.3874 54.8795C49.6533 55.0884 49.9819 55.2013 50.32 55.2C50.5538 55.1982 50.7836 55.1399 50.99 55.03C52.2877 54.3816 53.3771 53.3815 54.1338 52.1438C54.8906 50.9061 55.2843 49.4806 55.27 48.03C55.2963 46.8605 55.0534 45.7006 54.56 44.64C55.4931 43.6743 56.1792 42.4977 56.56 41.21H57.04C59.2372 41.2081 61.3769 40.5077 63.15 39.21C64.1533 40.6379 64.622 42.3734 64.4739 44.1123C64.3258 45.8511 63.5704 47.4824 62.34 48.72C62.1673 48.8926 62.0403 49.1054 61.9705 49.3394C61.9006 49.5733 61.8901 49.821 61.94 50.06C62.0084 50.5569 62.0285 51.0592 62 51.56C61.9842 53.5256 61.1944 55.4057 59.8016 56.7928C58.4089 58.1799 56.5256 58.9622 54.56 58.97H54.17C53.8507 58.9598 53.5364 59.051 53.2722 59.2307C53.0081 59.4104 52.8077 59.6693 52.7 59.97C52.2416 61.1731 51.3748 62.1769 50.2513 62.8058C49.1278 63.4346 47.8191 63.6486 46.5538 63.4104C45.2885 63.1721 44.1472 62.4967 43.3294 61.5022C42.5117 60.5077 42.0694 59.2575 42.08 57.97V23.15C42.08 21.6957 42.657 20.3008 43.6844 19.2715C44.7119 18.2422 46.1057 17.6626 47.56 17.66ZM16.7 43.56C16.7021 42.032 17.1733 40.5415 18.05 39.29C19.823 40.5877 21.9628 41.2881 24.16 41.29H24.64C25.0208 42.5777 25.7069 43.7543 26.64 44.72C26.106 45.7845 25.8286 46.9591 25.83 48.15C25.8157 49.6006 26.2094 51.0261 26.9662 52.2638C27.7229 53.5015 28.8123 54.5016 30.11 55.15C30.3164 55.2599 30.5462 55.3182 30.78 55.32C31.1181 55.3213 31.4467 55.2084 31.7126 54.9995C31.9785 54.7907 32.166 54.4981 32.2447 54.1693C32.3234 53.8405 32.2888 53.4947 32.1463 53.1881C32.0039 52.8815 31.762 52.6319 31.46 52.48C30.6676 52.0809 30.0019 51.4692 29.5374 50.7133C29.0729 49.9574 28.828 49.0872 28.83 48.2C28.8279 47.6395 28.9296 47.0835 29.13 46.56C30.0313 46.9906 31.0042 47.2516 32 47.33H32.11C32.307 47.3372 32.5035 47.3056 32.6882 47.2369C32.873 47.1682 33.0424 47.0637 33.1868 46.9296C33.3312 46.7954 33.4477 46.6341 33.5298 46.4548C33.6118 46.2756 33.6578 46.082 33.665 45.885C33.6722 45.688 33.6406 45.4915 33.5719 45.3068C33.5032 45.122 33.3987 44.9526 33.2646 44.8082C33.1304 44.6638 32.9691 44.5473 32.7898 44.4652C32.6106 44.3832 32.417 44.3372 32.22 44.33C31.3358 44.2634 30.4844 43.9669 29.75 43.47C29.6797 43.3746 29.5954 43.2903 29.5 43.22C29.4057 43.1538 29.3053 43.0968 29.2 43.05C28.3547 42.323 27.7628 41.3459 27.51 40.26C27.6437 39.9692 27.6788 39.6426 27.61 39.33C27.5689 39.143 27.4907 38.9662 27.38 38.81C27.4258 37.961 27.6726 37.135 28.1 36.4C28.2133 36.2311 28.2911 36.0408 28.3287 35.8409C28.3662 35.6409 28.3626 35.4355 28.3182 35.2369C28.2739 35.0384 28.1895 34.851 28.0704 34.686C27.9513 34.5211 27.7999 34.3821 27.6254 34.2776C27.4509 34.173 27.2569 34.105 27.0553 34.0778C26.8537 34.0505 26.6487 34.0646 26.4527 34.119C26.2567 34.1735 26.0738 34.2673 25.9152 34.3947C25.7566 34.5221 25.6255 34.6804 25.53 34.86C24.8978 35.9238 24.5149 37.117 24.41 38.35H24.16C22.1815 38.35 20.284 37.564 18.885 36.165C17.486 34.766 16.7 32.8685 16.7 30.89C16.7 28.9115 17.486 27.014 18.885 25.615C20.284 24.216 22.1815 23.43 24.16 23.43C24.4679 23.4331 24.7752 23.4565 25.08 23.5V23.56C25.0852 24.7334 25.5516 25.8578 26.3785 26.6903C27.2055 27.5229 28.3266 27.9969 29.5 28.01C29.8978 28.01 30.2794 27.852 30.5607 27.5707C30.842 27.2894 31 26.9078 31 26.51C31 26.1122 30.842 25.7306 30.5607 25.4493C30.2794 25.168 29.8978 25.01 29.5 25.01C29.1162 25.0074 28.749 24.8538 28.4776 24.5824C28.2062 24.311 28.0526 23.9438 28.05 23.56V23.27C28.05 21.8113 28.6295 20.4124 29.6609 19.3809C30.6924 18.3495 32.0913 17.77 33.55 17.77C35.0087 17.77 36.4076 18.3495 37.4391 19.3809C38.4705 20.4124 39.05 21.8113 39.05 23.27V57.97C39.0606 59.2575 38.6184 60.5077 37.8006 61.5022C36.9828 62.4967 35.8415 63.1721 34.5762 63.4104C33.3109 63.6486 32.0022 63.4346 30.8787 62.8058C29.7552 62.1769 28.8884 61.1731 28.43 59.97C28.321 59.6701 28.1203 59.4121 27.8565 59.2327C27.5926 59.0532 27.279 58.9613 26.96 58.97H26.56C24.5944 58.9622 22.7111 58.1799 21.3184 56.7928C19.9256 55.4057 19.1358 53.5256 19.12 51.56C19.123 51.0834 19.1698 50.608 19.26 50.14C19.3098 49.901 19.2994 49.6533 19.2295 49.4194C19.1597 49.1854 19.0327 48.9726 18.86 48.8C17.4741 47.4086 16.6972 45.5239 16.7 43.56ZM40.56 9.12C40.1622 9.12 39.7806 8.96196 39.4993 8.68066C39.218 8.39936 39.06 8.01783 39.06 7.62V1.5C39.06 1.10217 39.218 0.720644 39.4993 0.43934C39.7806 0.158035 40.1622 0 40.56 0C40.9578 0 41.3394 0.158035 41.6207 0.43934C41.902 0.720644 42.06 1.10217 42.06 1.5V7.62C42.06 8.01783 41.902 8.39936 41.6207 8.68066C41.3394 8.96196 40.9578 9.12 40.56 9.12ZM42.06 73.5V79.62C42.06 80.0178 41.902 80.3994 41.6207 80.6807C41.3394 80.962 40.9578 81.12 40.56 81.12C40.1622 81.12 39.7806 80.962 39.4993 80.6807C39.218 80.3994 39.06 80.0178 39.06 79.62V73.5C39.06 73.1022 39.218 72.7206 39.4993 72.4393C39.7806 72.158 40.1622 72 40.56 72C40.9578 72 41.3394 72.158 41.6207 72.4393C41.902 72.7206 42.06 73.1022 42.06 73.5ZM81.12 40.56C81.12 40.9578 80.962 41.3394 80.6807 41.6207C80.3994 41.902 80.0178 42.06 79.62 42.06H73.5C73.1022 42.06 72.7206 41.902 72.4393 41.6207C72.158 41.3394 72 40.9578 72 40.56C72 40.1622 72.158 39.7806 72.4393 39.4993C72.7206 39.218 73.1022 39.06 73.5 39.06H79.62C80.0178 39.06 80.3994 39.218 80.6807 39.4993C80.962 39.7806 81.12 40.1622 81.12 40.56ZM7.62 42.06H1.5C1.10217 42.06 0.720644 41.902 0.43934 41.6207C0.158035 41.3394 0 40.9578 0 40.56C0 40.1622 0.158035 39.7806 0.43934 39.4993C0.720644 39.218 1.10217 39.06 1.5 39.06H7.62C8.01783 39.06 8.39936 39.218 8.68066 39.4993C8.96196 39.7806 9.12 40.1622 9.12 40.56C9.12 40.9578 8.96196 41.3394 8.68066 41.6207C8.39936 41.902 8.01783 42.06 7.62 42.06ZM69.24 14L64.91 18.33C64.7712 18.4698 64.606 18.5806 64.4241 18.6562C64.2421 18.7317 64.047 18.7704 63.85 18.77C63.453 18.7664 63.0729 18.6087 62.79 18.33C62.5115 18.0475 62.3554 17.6667 62.3554 17.27C62.3554 16.8733 62.5115 16.4925 62.79 16.21L67.12 11.88C67.4043 11.615 67.7804 11.4708 68.169 11.4776C68.5576 11.4845 68.9284 11.6419 69.2032 11.9168C69.4781 12.1916 69.6355 12.5624 69.6423 12.951C69.6492 13.3396 69.505 13.7157 69.24 14ZM11.88 67.12L16.21 62.79C16.3473 62.6426 16.5129 62.5244 16.6969 62.4424C16.8809 62.3605 17.0795 62.3164 17.281 62.3128C17.4824 62.3093 17.6824 62.3463 17.8692 62.4218C18.056 62.4972 18.2256 62.6095 18.3681 62.7519C18.5105 62.8944 18.6228 63.064 18.6982 63.2508C18.7737 63.4376 18.8107 63.6376 18.8072 63.839C18.8036 64.0405 18.7595 64.2391 18.6776 64.4231C18.5956 64.6071 18.4774 64.7727 18.33 64.91L14 69.24C13.8612 69.3798 13.696 69.4906 13.5141 69.5662C13.3321 69.6417 13.137 69.6804 12.94 69.68C12.6435 69.6797 12.3538 69.5916 12.1073 69.4268C11.8609 69.2619 11.6688 69.0278 11.5554 68.7538C11.442 68.4799 11.4123 68.1785 11.4701 67.8877C11.5278 67.5969 11.6705 67.3298 11.88 67.12ZM62.79 64.91C62.6426 64.7727 62.5244 64.6071 62.4424 64.4231C62.3605 64.2391 62.3164 64.0405 62.3128 63.839C62.3093 63.6376 62.3463 63.4376 62.4218 63.2508C62.4972 63.064 62.6095 62.8944 62.7519 62.7519C62.8944 62.6095 63.064 62.4972 63.2508 62.4218C63.4376 62.3463 63.6376 62.3093 63.839 62.3128C64.0405 62.3164 64.2391 62.3605 64.4231 62.4424C64.6071 62.5244 64.7727 62.6426 64.91 62.79L69.24 67.12C69.4495 67.3298 69.5922 67.5969 69.6499 67.8877C69.7077 68.1785 69.678 68.4799 69.5646 68.7538C69.4512 69.0278 69.2591 69.2619 69.0127 69.4268C68.7662 69.5916 68.4765 69.6797 68.18 69.68C67.983 69.6804 67.7879 69.6417 67.6059 69.5662C67.424 69.4906 67.2588 69.3798 67.12 69.24L62.79 64.91ZM11.88 14C11.615 13.7157 11.4708 13.3396 11.4776 12.951C11.4845 12.5624 11.6419 12.1916 11.9168 11.9168C12.1916 11.6419 12.5624 11.4845 12.951 11.4776C13.3396 11.4708 13.7157 11.615 14 11.88L18.33 16.21C18.6085 16.4925 18.7646 16.8733 18.7646 17.27C18.7646 17.6667 18.6085 18.0475 18.33 18.33C18.0471 18.6087 17.667 18.7664 17.27 18.77C17.073 18.7704 16.8779 18.7317 16.6959 18.6562C16.514 18.5806 16.3488 18.4698 16.21 18.33L11.88 14Z" fill="white"/>
</svg>
